<svg width="128" height="128" viewBox="0 0 128 128" fill="none" xmlns="http://www.w3.org/2000/svg">
<circle cx="64" cy="64" r="64" fill="#5568CB"/>
<path d="M65.1364 70H61.0114V58.3636H65.1705C66.3409 58.3636 67.3485 58.5966 68.1932 59.0625C69.0379 59.5246 69.6875 60.1894 70.142 61.0568C70.6004 61.9242 70.8295 62.9621 70.8295 64.1705C70.8295 65.3826 70.6004 66.4242 70.142 67.2955C69.6875 68.1667 69.0341 68.8352 68.1818 69.3011C67.3333 69.767 66.3182 70 65.1364 70ZM63.4716 67.892H65.0341C65.7614 67.892 66.3731 67.7633 66.8693 67.5057C67.3693 67.2443 67.7443 66.8409 67.9943 66.2955C68.2481 65.7462 68.375 65.0379 68.375 64.1705C68.375 63.3106 68.2481 62.608 67.9943 62.0625C67.7443 61.517 67.3712 61.1155 66.875 60.858C66.3788 60.6004 65.767 60.4716 65.0398 60.4716H63.4716V67.892ZM75.0952 70.1648C74.5384 70.1648 74.0421 70.0682 73.6065 69.875C73.1709 69.678 72.8262 69.3883 72.5724 69.0057C72.3224 68.6193 72.1974 68.1383 72.1974 67.5625C72.1974 67.0777 72.2865 66.6705 72.4645 66.3409C72.6425 66.0114 72.8849 65.7462 73.1918 65.5455C73.4986 65.3447 73.8471 65.1932 74.2372 65.0909C74.6312 64.9886 75.044 64.9167 75.4759 64.875C75.9834 64.822 76.3925 64.7727 76.7031 64.7273C77.0137 64.678 77.2391 64.6061 77.3793 64.5114C77.5194 64.4167 77.5895 64.2765 77.5895 64.0909V64.0568C77.5895 63.697 77.4759 63.4186 77.2486 63.2216C77.0251 63.0246 76.7069 62.9261 76.294 62.9261C75.8584 62.9261 75.5118 63.0227 75.2543 63.2159C74.9967 63.4053 74.8262 63.6439 74.7429 63.9318L72.5043 63.75C72.6179 63.2197 72.8414 62.7614 73.1747 62.375C73.508 61.9848 73.938 61.6856 74.4645 61.4773C74.9948 61.2652 75.6084 61.1591 76.3054 61.1591C76.7902 61.1591 77.2543 61.2159 77.6974 61.3295C78.1444 61.4432 78.5402 61.6193 78.8849 61.858C79.2334 62.0966 79.508 62.4034 79.7088 62.7784C79.9096 63.1496 80.0099 63.5947 80.0099 64.1136V70H77.7145V68.7898H77.6463C77.5062 69.0625 77.3187 69.303 77.0838 69.5114C76.849 69.7159 76.5668 69.8769 76.2372 69.9943C75.9077 70.108 75.527 70.1648 75.0952 70.1648ZM75.7884 68.4943C76.1444 68.4943 76.4588 68.4242 76.7315 68.2841C77.0043 68.1402 77.2183 67.947 77.3736 67.7045C77.5289 67.4621 77.6065 67.1875 77.6065 66.8807V65.9545C77.5308 66.0038 77.4266 66.0492 77.294 66.0909C77.1652 66.1288 77.0194 66.1648 76.8565 66.1989C76.6937 66.2292 76.5308 66.2576 76.3679 66.2841C76.205 66.3068 76.0573 66.3277 75.9247 66.3466C75.6406 66.3883 75.3925 66.4545 75.1804 66.5455C74.9683 66.6364 74.8035 66.7595 74.6861 66.9148C74.5687 67.0663 74.5099 67.2557 74.5099 67.483C74.5099 67.8125 74.6293 68.0644 74.8679 68.2386C75.1103 68.4091 75.4171 68.4943 75.7884 68.4943ZM89.1491 63.7614L86.9332 63.8977C86.8954 63.7083 86.8139 63.5379 86.6889 63.3864C86.5639 63.2311 86.3991 63.108 86.1946 63.017C85.9938 62.9223 85.7533 62.875 85.473 62.875C85.098 62.875 84.7817 62.9545 84.5241 63.1136C84.2666 63.2689 84.1378 63.4773 84.1378 63.7386C84.1378 63.947 84.2211 64.1231 84.3878 64.267C84.5545 64.411 84.8404 64.5265 85.2457 64.6136L86.8253 64.9318C87.6738 65.1061 88.3063 65.3864 88.723 65.7727C89.1397 66.1591 89.348 66.6667 89.348 67.2955C89.348 67.8674 89.1795 68.3693 88.8423 68.8011C88.509 69.233 88.0507 69.5701 87.4673 69.8125C86.8878 70.0511 86.2192 70.1705 85.4616 70.1705C84.3063 70.1705 83.3859 69.9299 82.7003 69.4489C82.0185 68.964 81.6188 68.3049 81.5014 67.4716L83.8821 67.3466C83.9541 67.6989 84.1283 67.9678 84.4048 68.1534C84.6813 68.3352 85.0355 68.4261 85.4673 68.4261C85.8916 68.4261 86.2325 68.3447 86.4901 68.1818C86.7514 68.0152 86.884 67.8011 86.8878 67.5398C86.884 67.3201 86.7912 67.1402 86.6094 67C86.4276 66.8561 86.1473 66.7462 85.7685 66.6705L84.2571 66.3693C83.4048 66.1989 82.7704 65.9034 82.3537 65.483C81.9408 65.0625 81.7344 64.5265 81.7344 63.875C81.7344 63.3144 81.8859 62.8314 82.1889 62.4261C82.4957 62.0208 82.9257 61.7083 83.4787 61.4886C84.0355 61.2689 84.687 61.1591 85.4332 61.1591C86.5355 61.1591 87.4029 61.392 88.0355 61.858C88.6719 62.3239 89.0431 62.9583 89.1491 63.7614ZM93.2926 64.9545V70H90.8722V58.3636H93.2244V62.8125H93.3267C93.5237 62.2973 93.8419 61.8939 94.2812 61.6023C94.7206 61.3068 95.2718 61.1591 95.9347 61.1591C96.5407 61.1591 97.0691 61.2917 97.5199 61.5568C97.9744 61.8182 98.3267 62.1951 98.5767 62.6875C98.8305 63.1761 98.9555 63.7614 98.9517 64.4432V70H96.5312V64.875C96.535 64.3371 96.3987 63.9186 96.1222 63.6193C95.8494 63.3201 95.4669 63.1705 94.9744 63.1705C94.6449 63.1705 94.3532 63.2405 94.0994 63.3807C93.8494 63.5208 93.6525 63.7254 93.5085 63.9943C93.3684 64.2595 93.2964 64.5795 93.2926 64.9545Z" fill="#B1966E"/>
<rect x="58" y="21" width="38" height="18" fill="#1D1A1A"/>
<rect x="38" y="21" width="20" height="86" fill="#191717"/>
</svg>
