<svg width="24" height="24" viewBox="0 0 24 24" fill="none" xmlns="http://www.w3.org/2000/svg">
<path fill-rule="evenodd" clip-rule="evenodd" d="M23.9999 9H3V12C3.30961 12 3.46441 12 3.59437 12.0171C4.49185 12.1353 5.19806 12.8415 5.31622 13.739C5.33333 13.8689 5.33333 14.0237 5.33333 14.3333V18C5.33333 20.8284 5.33333 22.2426 6.21201 23.1213C7.09069 24 8.5049 24 11.3333 24H15.6666C18.495 24 19.9093 24 20.7879 23.1213C21.6666 22.2426 21.6666 20.8284 21.6666 18V14.3333C21.6666 14.0237 21.6666 13.8689 21.6837 13.739C21.8019 12.8415 22.5081 12.1353 23.4056 12.0171C23.5355 12 23.6903 12 23.9999 12V9ZM11.5833 14C11.5833 13.4477 11.1356 13 10.5833 13C10.031 13 9.58331 13.4477 9.58331 14V19C9.58331 19.5523 10.031 20 10.5833 20C11.1356 20 11.5833 19.5523 11.5833 19V14ZM17.4166 14C17.4166 13.4477 16.9689 13 16.4166 13C15.8643 13 15.4166 13.4477 15.4166 14V19C15.4166 19.5523 15.8643 20 16.4166 20C16.9689 20 17.4166 19.5523 17.4166 19V14Z" fill="#222222"/>
<path d="M10.0681 3.37059C10.1821 3.26427 10.4332 3.17033 10.7825 3.10332C11.1318 3.03632 11.5597 3 12 3C12.4403 3 12.8682 3.03632 13.2175 3.10332C13.5668 3.17033 13.8179 3.26427 13.9319 3.37059" stroke="#222222" stroke-width="2" stroke-linecap="round"/>
</svg>
